<mxfile host="Electron" modified="2023-05-29T11:55:18.487Z" agent="Mozilla/5.0 (Windows NT 10.0; Win64; x64) AppleWebKit/537.36 (KHTML, like Gecko) draw.io/21.2.8 Chrome/112.0.5615.165 Electron/24.2.0 Safari/537.36" etag="C4T8UAllIDRIQGz9gniO" version="21.2.8" type="device">
  <diagram name="Pagina-1" id="AHyJ-n_UTIYTSlR7aWz2">
    <mxGraphModel dx="714" dy="418" grid="1" gridSize="10" guides="1" tooltips="1" connect="1" arrows="1" fold="1" page="1" pageScale="1" pageWidth="827" pageHeight="1169" math="0" shadow="0">
      <root>
        <mxCell id="0" />
        <mxCell id="1" parent="0" />
        <mxCell id="OjWA-4CbQiJTztgsCJEO-2" value="&lt;font style=&quot;font-size: 14px;&quot;&gt;i&lt;/font&gt;" style="ellipse;whiteSpace=wrap;html=1;aspect=fixed;" parent="1" vertex="1">
          <mxGeometry x="374" y="64" width="80" height="80" as="geometry" />
        </mxCell>
        <mxCell id="uPZ_Bgz7gZUHfEXq7mlB-1" value="&lt;font style=&quot;font-size: 14px;&quot;&gt;s&#39; a&#39; c&#39;&lt;/font&gt;" style="ellipse;whiteSpace=wrap;html=1;aspect=fixed;" vertex="1" parent="1">
          <mxGeometry x="294" y="160" width="80" height="80" as="geometry" />
        </mxCell>
        <mxCell id="uPZ_Bgz7gZUHfEXq7mlB-2" value="&lt;font style=&quot;font-size: 14px;&quot;&gt;s&#39;&#39; a&#39;&#39; c&#39;&#39;&lt;/font&gt;" style="ellipse;whiteSpace=wrap;html=1;aspect=fixed;" vertex="1" parent="1">
          <mxGeometry x="454" y="160" width="80" height="80" as="geometry" />
        </mxCell>
        <mxCell id="uPZ_Bgz7gZUHfEXq7mlB-3" value="" style="endArrow=classic;html=1;rounded=0;exitX=0;exitY=1;exitDx=0;exitDy=0;entryX=0.5;entryY=0;entryDx=0;entryDy=0;" edge="1" parent="1" source="OjWA-4CbQiJTztgsCJEO-2" target="uPZ_Bgz7gZUHfEXq7mlB-1">
          <mxGeometry width="50" height="50" relative="1" as="geometry">
            <mxPoint x="50" y="170" as="sourcePoint" />
            <mxPoint x="130" y="170" as="targetPoint" />
          </mxGeometry>
        </mxCell>
        <mxCell id="uPZ_Bgz7gZUHfEXq7mlB-4" value="" style="endArrow=classic;html=1;rounded=0;exitX=1;exitY=1;exitDx=0;exitDy=0;entryX=0.5;entryY=0;entryDx=0;entryDy=0;" edge="1" parent="1" source="OjWA-4CbQiJTztgsCJEO-2" target="uPZ_Bgz7gZUHfEXq7mlB-2">
          <mxGeometry width="50" height="50" relative="1" as="geometry">
            <mxPoint x="60" y="180" as="sourcePoint" />
            <mxPoint x="140" y="180" as="targetPoint" />
          </mxGeometry>
        </mxCell>
        <mxCell id="uPZ_Bgz7gZUHfEXq7mlB-5" value="&lt;font style=&quot;font-size: 14px;&quot;&gt;Stato goal&lt;/font&gt;" style="ellipse;whiteSpace=wrap;html=1;aspect=fixed;fillColor=#0050ef;fontColor=#ffffff;strokeColor=#001DBC;" vertex="1" parent="1">
          <mxGeometry x="374" y="270" width="80" height="80" as="geometry" />
        </mxCell>
        <mxCell id="uPZ_Bgz7gZUHfEXq7mlB-6" value="" style="endArrow=classic;html=1;rounded=0;exitX=0.5;exitY=1;exitDx=0;exitDy=0;entryX=0;entryY=0;entryDx=0;entryDy=0;" edge="1" parent="1" source="uPZ_Bgz7gZUHfEXq7mlB-1" target="uPZ_Bgz7gZUHfEXq7mlB-5">
          <mxGeometry width="50" height="50" relative="1" as="geometry">
            <mxPoint x="396" y="142" as="sourcePoint" />
            <mxPoint x="344" y="170" as="targetPoint" />
          </mxGeometry>
        </mxCell>
        <mxCell id="uPZ_Bgz7gZUHfEXq7mlB-7" value="" style="endArrow=classic;html=1;rounded=0;exitX=0.5;exitY=1;exitDx=0;exitDy=0;entryX=1;entryY=0;entryDx=0;entryDy=0;" edge="1" parent="1" source="uPZ_Bgz7gZUHfEXq7mlB-2" target="uPZ_Bgz7gZUHfEXq7mlB-5">
          <mxGeometry width="50" height="50" relative="1" as="geometry">
            <mxPoint x="406" y="152" as="sourcePoint" />
            <mxPoint x="354" y="180" as="targetPoint" />
          </mxGeometry>
        </mxCell>
        <mxCell id="uPZ_Bgz7gZUHfEXq7mlB-8" value="c&#39;" style="text;html=1;strokeColor=none;fillColor=none;align=center;verticalAlign=middle;whiteSpace=wrap;rounded=0;fontSize=14;" vertex="1" parent="1">
          <mxGeometry x="330" y="114" width="30" height="30" as="geometry" />
        </mxCell>
        <mxCell id="uPZ_Bgz7gZUHfEXq7mlB-9" value="c&#39;&#39;" style="text;html=1;strokeColor=none;fillColor=none;align=center;verticalAlign=middle;whiteSpace=wrap;rounded=0;fontSize=14;" vertex="1" parent="1">
          <mxGeometry x="460" y="114" width="30" height="30" as="geometry" />
        </mxCell>
        <mxCell id="uPZ_Bgz7gZUHfEXq7mlB-10" value="c&#39;&#39;&#39;" style="text;html=1;strokeColor=none;fillColor=none;align=center;verticalAlign=middle;whiteSpace=wrap;rounded=0;fontSize=14;" vertex="1" parent="1">
          <mxGeometry x="319" y="250" width="30" height="30" as="geometry" />
        </mxCell>
        <mxCell id="uPZ_Bgz7gZUHfEXq7mlB-11" value="c&#39;&#39;&#39;&#39;" style="text;html=1;strokeColor=none;fillColor=none;align=center;verticalAlign=middle;whiteSpace=wrap;rounded=0;fontSize=14;" vertex="1" parent="1">
          <mxGeometry x="479" y="250" width="30" height="30" as="geometry" />
        </mxCell>
        <mxCell id="uPZ_Bgz7gZUHfEXq7mlB-12" value="Grafo di ricerca" style="text;html=1;strokeColor=none;fillColor=none;align=center;verticalAlign=middle;whiteSpace=wrap;rounded=0;fontSize=18;" vertex="1" parent="1">
          <mxGeometry x="250" y="50" width="80" height="46" as="geometry" />
        </mxCell>
      </root>
    </mxGraphModel>
  </diagram>
</mxfile>
